<mxfile host="www.draw.io" modified="2020-01-01T03:20:12.968Z" agent="Mozilla/5.0 (Macintosh; Intel Mac OS X 10_14_4) AppleWebKit/537.36 (KHTML, like Gecko) Chrome/79.0.3945.88 Safari/537.36" etag="AfwelAKJCkv6CwDV_V2c" version="12.4.8" type="github">
  <diagram id="T3aL5X-1EMsDyOF4aQC-" name="Page-1">
    <mxGraphModel dx="2272" dy="759" grid="1" gridSize="10" guides="1" tooltips="1" connect="1" arrows="1" fold="1" page="1" pageScale="1" pageWidth="1100" pageHeight="850" math="0" shadow="0">
      <root>
        <mxCell id="0"/>
        <mxCell id="1" parent="0"/>
        <mxCell id="gHFnzDRZlQcek6Eq3htk-1" value="home (event feed) - messaging - create event - profile - switch users&lt;br&gt;&lt;br&gt;switch users allows user to view&amp;nbsp;" style="rounded=0;whiteSpace=wrap;html=1;" parent="1" vertex="1">
          <mxGeometry x="150" y="230" width="570" height="60" as="geometry"/>
        </mxCell>
        <mxCell id="gHFnzDRZlQcek6Eq3htk-2" value="An Assemblage is a collection of people.&amp;nbsp;&lt;br&gt;An event is an assemblage defined by the collection of other assemblages that agree to meet at a certain place and time&lt;br&gt;a person is an assemblage." style="text;html=1;align=center;verticalAlign=middle;resizable=0;points=[];autosize=1;" parent="1" vertex="1">
          <mxGeometry x="-51" y="394" width="650" height="50" as="geometry"/>
        </mxCell>
        <mxCell id="gHFnzDRZlQcek6Eq3htk-3" value="assemblage table::::&lt;br&gt;unique id (doesn&#39;t change when display name changes)&lt;br&gt;users: array.&lt;br&gt;metadata: description, type, etc&lt;br&gt;&lt;br&gt;when an assemblage is deleted, it has to inform all its parents that it is gone. If it is the only child&lt;br&gt;of the parent, the parent has to be deleted as well.&amp;nbsp;&lt;br&gt;&lt;br&gt;Think deeply. can a venue and a band be the same thing?&lt;br&gt;should an event be limited to a single venue?&lt;br&gt;should there be such thing as a super-event? (series or tour?)" style="text;html=1;align=center;verticalAlign=middle;resizable=0;points=[];autosize=1;" parent="1" vertex="1">
          <mxGeometry x="-80" y="630" width="530" height="160" as="geometry"/>
        </mxCell>
        <mxCell id="gHFnzDRZlQcek6Eq3htk-5" value="events table:::&lt;br&gt;an event is itself a type of assemblage, but needs to be treated a little differently.&amp;nbsp;&lt;br&gt;It is a super-assemblage,&amp;nbsp;&lt;br&gt;an assemblage of assemblages.&amp;nbsp;&lt;br&gt;When people register their interest in an event,&amp;nbsp;&lt;br&gt;they are subscribed to changes in that event&#39;s information.&amp;nbsp;&lt;br&gt;organizers of the event can add new information.&amp;nbsp;&lt;br&gt;organizers are also public, though&amp;nbsp;&lt;br&gt;which means that any attendee can message them for information about the event .&lt;br&gt;It is not a huge spectacle, however.&amp;nbsp;&lt;br&gt;The core inclination of the app is to get people meeting in real life.&lt;br&gt;Not spectator culture, direct participatory culture.&amp;nbsp;&lt;br&gt;If you want to know whether someone is attending an event,&amp;nbsp;&lt;br&gt;you can message them the info about it.&amp;nbsp;&lt;br&gt;&lt;br&gt;" style="text;html=1;align=center;verticalAlign=middle;resizable=0;points=[];autosize=1;" parent="1" vertex="1">
          <mxGeometry x="350" y="630" width="460" height="220" as="geometry"/>
        </mxCell>
        <mxCell id="gHFnzDRZlQcek6Eq3htk-6" value="should users be populated into the assemblage table? I feel like they should...&lt;br&gt;&lt;br&gt;advantages of having a separate user table:::&lt;br&gt;possibility easier to keep track of user creation and deletion events?&lt;br&gt;&lt;br&gt;disadvantages of having a separate user table:::&lt;br&gt;can&#39;t reuse logic of assembly&amp;nbsp;&lt;br&gt;streamlines tables&lt;br&gt;&lt;br&gt;the real question is whether you want to preserve the cardinality of the levels of hierarchy.&amp;nbsp;&lt;br&gt;Like, should there be a difference in the data model between a root-level user, an assemblage,&amp;nbsp;&lt;br&gt;and an assemblage of assemblages (coallition)?&amp;nbsp;&lt;br&gt;&lt;br&gt;I feel that it&#39;s obvious that there will be significant difference in the user experience between these different levels.&lt;br&gt;Furthermore, It&#39;s probably not the best idea to allow unlimited nesting of hierarchies right off the bat... at least, it&#39;s certainly not an MVP feature.&lt;br&gt;Additionally, allowing the users to be a separate data-model entity will allow the reuse of the auth provider data (firebase) as the only table representing users&lt;br&gt;and limit the data duplication of copying auth entities to the assemblages table. &lt;br&gt;&lt;br&gt;The undifferentiated hierarchy idea is interesting and should be kept in mind as a possible later feature if it seems relevant.&amp;nbsp;&lt;br&gt;Let&#39;s not forget thought that assemblages often double back on their components and impose retrains." style="text;html=1;align=center;verticalAlign=middle;resizable=0;points=[];autosize=1;" parent="1" vertex="1">
          <mxGeometry x="470" y="300" width="850" height="290" as="geometry"/>
        </mxCell>
        <mxCell id="gHFnzDRZlQcek6Eq3htk-7" value="Three tables: assemblage, events, messages" style="text;html=1;align=center;verticalAlign=middle;resizable=0;points=[];autosize=1;" parent="1" vertex="1">
          <mxGeometry x="350" y="600" width="260" height="20" as="geometry"/>
        </mxCell>
        <mxCell id="gHFnzDRZlQcek6Eq3htk-8" value="messages table:&lt;br&gt;&lt;br&gt;chats are between a pre-defined series of entities.&lt;br&gt;downside: cannot flexibly add to the assemblages chatting.&amp;nbsp;&lt;br&gt;However, adding a new user to a participating assembly&lt;br&gt;will allow that user to see the entire history of the conversation" style="text;html=1;align=center;verticalAlign=middle;resizable=0;points=[];autosize=1;" parent="1" vertex="1">
          <mxGeometry x="800" y="650" width="350" height="90" as="geometry"/>
        </mxCell>
        <mxCell id="58gmecP8zFCgHmUxJLat-1" value="assemblies, events, then messages. Three main pieces of functionality.&lt;br&gt;&lt;br&gt;tomorrow:&lt;br&gt;create and switch between assemblies, view and edit assembly profile&lt;br&gt;&lt;br&gt;required pieces of UI :::::: &lt;br&gt;switch user screen.&lt;br&gt;view / edit profile screen that works for individuals, bands, and entities&lt;br&gt;&lt;br&gt;thursday: create and edit events, see list of events.&lt;br&gt;&lt;br&gt;required pieces of UI :::::::&lt;br&gt;event list&lt;br&gt;create / edit event view.&amp;nbsp;&lt;br&gt;event details view that links to edit event view if user has permission.&lt;br&gt;&lt;br&gt;Friday / sat : send messages to other users. How???&lt;br&gt;we don&#39;t need full text search, yet.&amp;nbsp;&lt;br&gt;we just need to query based on user name on key stroke. Easy.&amp;nbsp;" style="text;html=1;align=center;verticalAlign=middle;resizable=0;points=[];autosize=1;" vertex="1" parent="1">
          <mxGeometry x="-46" y="856" width="390" height="270" as="geometry"/>
        </mxCell>
      </root>
    </mxGraphModel>
  </diagram>
</mxfile>
